<svg width="24" height="24" viewBox="0 0 24 24" fill="none" xmlns="http://www.w3.org/2000/svg">
<path d="M19.3257 17.9698H14.7803V24C15.1823 23.9566 15.574 23.8987 15.9605 23.8312C15.9863 23.8263 16.012 23.8215 16.0378 23.8167C16.4037 23.7491 16.7644 23.6768 17.1097 23.5899C17.2025 23.5658 17.2901 23.5465 17.3829 23.5224C17.455 23.5031 17.5323 23.4838 17.6045 23.4597C17.8982 23.3777 18.1817 23.286 18.46 23.1847C18.5579 23.151 18.6558 23.1124 18.7537 23.0738C18.9753 22.9869 19.1918 22.8953 19.403 22.7988C19.4907 22.7602 19.5731 22.7168 19.6607 22.6782C19.7226 22.6492 19.7844 22.6155 19.8514 22.5817C20.2585 22.3694 20.6451 22.1331 21.0006 21.8726C21.047 21.8388 21.0986 21.8002 21.1449 21.7664C21.2016 21.723 21.2583 21.6796 21.315 21.6314C21.3614 21.5928 21.4129 21.5542 21.4593 21.5108C21.5366 21.4432 21.6139 21.3805 21.6861 21.3081C21.8252 21.1779 21.9592 21.0428 22.088 20.9077C22.0983 20.8933 22.1138 20.8836 22.1241 20.8691C22.1963 20.792 22.2684 20.7099 22.3354 20.6279C22.356 20.6038 22.3715 20.5797 22.3921 20.5604C22.8095 20.0442 23.1548 19.4653 23.4177 18.8189C23.4486 18.7465 23.4743 18.679 23.5001 18.6066C23.8248 17.7286 24 16.73 24 15.606C24 14.8969 23.8712 14.1877 23.6186 13.4786C23.6186 13.4979 23.6186 13.5172 23.6238 13.5317C21.6964 7.79578 12.9405 0.853869 12.0696 0.173668L11.9974 0L11.9253 0.173668C11.0492 0.863518 2.29332 7.89226 0.371054 13.5703C0.371054 13.5413 0.376208 13.5075 0.376208 13.4786C0.128838 14.1877 0 14.8969 0 15.606C0 19.4509 2.04595 21.8099 5.1793 23.0496C5.38544 23.1317 5.59674 23.2088 5.81318 23.2812C6.01933 23.3487 6.23062 23.4163 6.44707 23.4742C7.31802 23.7202 8.24565 23.8939 9.22482 24V17.9698H4.67425L11.9974 10.285L13.1364 11.4669L19.3257 17.9698Z" fill="#1A1A1A"/>
</svg>

