<svg width="24" height="24" viewBox="0 0 24 24" fill="none" xmlns="http://www.w3.org/2000/svg">
<path d="M20.53 10.0712C20.5589 6.68749 17.6769 3.58555 14.1058 3.1566C14.0348 3.14816 13.9574 3.13536 13.8755 3.12177C13.6987 3.09247 13.5159 3.06238 13.3314 3.06238C12.5995 3.06238 12.4039 3.5765 12.3523 3.88316C12.3022 4.18128 12.35 4.43164 12.4941 4.62762C12.7365 4.9572 13.1629 5.0157 13.5055 5.06262C13.6059 5.0765 13.7007 5.08939 13.78 5.1072C16.9885 5.82415 18.0689 6.9513 18.5969 10.1326C18.6098 10.2103 18.6156 10.3061 18.6218 10.4077C18.6448 10.788 18.6928 11.5791 19.5434 11.5791H19.5435C19.6143 11.5791 19.6904 11.573 19.7696 11.5609C20.5617 11.4405 20.5368 10.7174 20.5249 10.3699C20.5215 10.272 20.5184 10.1794 20.5267 10.1179C20.5288 10.1024 20.5299 10.0868 20.53 10.0712Z" fill="#7F40BD"/>
<path d="M13.1237 1.91465C13.2187 1.92149 13.3087 1.92805 13.3836 1.93954C18.6524 2.74982 21.0754 5.24609 21.7469 10.556C21.7583 10.6463 21.76 10.7564 21.7619 10.8729C21.7686 11.2878 21.7824 12.1508 22.7092 12.1687L22.738 12.169C23.0287 12.169 23.2599 12.0813 23.4253 11.9083C23.7138 11.6065 23.6937 11.1582 23.6774 10.7978C23.6735 10.7094 23.6697 10.6262 23.6707 10.5533C23.7376 5.12262 19.0368 0.198093 13.611 0.0149999C13.5885 0.0142499 13.567 0.0154687 13.5453 0.0185156C13.5347 0.0200624 13.5149 0.0220312 13.481 0.0220312C13.427 0.0220312 13.3604 0.0173437 13.2898 0.0125625C13.2044 0.0067031 13.1077 0 13.0096 0C12.1455 0 11.9813 0.614154 11.9603 0.980246C11.9118 1.82638 12.7303 1.88591 13.1237 1.91465Z" fill="#7F40BD"/>
<path d="M21.4926 17.4188C21.3806 17.3332 21.2648 17.2447 21.1563 17.1573C20.5811 16.6944 19.9691 16.2677 19.3772 15.855C19.2544 15.7694 19.1315 15.6838 19.0091 15.5979C18.251 15.0654 17.5694 14.8066 16.9254 14.8066C16.0581 14.8066 15.3019 15.2858 14.6777 16.2308C14.4012 16.6498 14.0657 16.8535 13.6523 16.8535C13.4078 16.8535 13.13 16.7837 12.8267 16.646C10.3795 15.5363 8.6321 13.8349 7.63287 11.5889C7.14982 10.5034 7.30643 9.79383 8.15655 9.21634C8.63932 8.88868 9.53791 8.2787 9.47425 7.11063C9.40216 5.78416 6.47539 1.79291 5.2422 1.33963C4.72011 1.14763 4.17154 1.14585 3.6088 1.33518C2.19112 1.81175 1.1738 2.6487 0.666519 3.75537C0.176302 4.82473 0.198427 6.08032 0.73055 7.38644C2.26879 11.1628 4.43146 14.4553 7.15873 17.1722C9.82825 19.8319 13.1093 22.0105 16.9107 23.6474C17.2533 23.7948 17.6127 23.8752 17.8751 23.9339C17.9645 23.954 18.0417 23.9711 18.098 23.9865C18.129 23.995 18.1609 23.9995 18.1929 23.9998L18.2229 24C18.223 24 18.2229 24 18.2231 24C20.011 24 22.1578 22.3662 22.8171 20.5036C23.3948 18.8726 22.3401 18.0665 21.4926 17.4188Z" fill="#7F40BD"/>
<path d="M13.9145 6.22837C13.6084 6.23611 12.9714 6.25191 12.7479 6.90075C12.6433 7.20393 12.6558 7.46718 12.7851 7.68318C12.9749 8.0001 13.3385 8.09723 13.6692 8.15052C14.8685 8.34299 15.4845 9.00617 15.6077 10.2375C15.6649 10.8116 16.0515 11.2125 16.5479 11.2125H16.548C16.5847 11.2125 16.6222 11.2104 16.6595 11.2058C17.2565 11.1348 17.546 10.6962 17.5198 9.90223C17.5294 9.07363 17.0957 8.13294 16.3582 7.38365C15.6181 6.63206 14.726 6.20878 13.9145 6.22837Z" fill="#7F40BD"/>
</svg>
