<svg width="24" height="24" viewBox="0 0 24 24" fill="none" xmlns="http://www.w3.org/2000/svg">
<path d="M12.003 0H11.997C5.3805 0 0 5.382 0 12C0 14.625 0.846 17.058 2.2845 19.0335L0.789 23.4915L5.4015 22.017C7.299 23.274 9.5625 24 12.003 24C18.6195 24 24 18.6165 24 12C24 5.3835 18.6195 0 12.003 0Z" fill="#4CAF50"/>
<path d="M18.9855 16.9455C18.696 17.763 17.547 18.441 16.6305 18.639C16.0035 18.7725 15.1845 18.879 12.4275 17.736C8.90098 16.275 6.62998 12.6915 6.45298 12.459C6.28348 12.2265 5.02798 10.5615 5.02798 8.83946C5.02798 7.11746 5.90248 6.27896 6.25498 5.91896C6.54448 5.62346 7.02298 5.48846 7.48198 5.48846C7.63048 5.48846 7.76398 5.49596 7.88398 5.50196C8.23648 5.51696 8.41348 5.53796 8.64598 6.09446C8.93548 6.79196 9.64048 8.51396 9.72448 8.69096C9.80998 8.86796 9.89548 9.10796 9.77549 9.34046C9.66298 9.58046 9.56398 9.68696 9.38698 9.89096C9.20998 10.095 9.04198 10.251 8.86498 10.47C8.70298 10.6605 8.51998 10.8645 8.72398 11.217C8.92798 11.562 9.63298 12.7125 10.671 13.6365C12.0105 14.829 13.0965 15.21 13.485 15.372C13.7745 15.492 14.1195 15.4635 14.331 15.2385C14.5995 14.949 14.931 14.469 15.2685 13.9965C15.5085 13.6575 15.8115 13.6155 16.1295 13.7355C16.4535 13.848 18.168 14.6955 18.5205 14.871C18.873 15.048 19.1055 15.132 19.191 15.2805C19.275 15.429 19.275 16.1265 18.9855 16.9455Z" fill="#FAFAFA"/>
</svg>
